# Blender v2.79 (sub 0) OBJ File: 'digitalDash.blend'
# www.blender.org
mtllib digitalDash.mtl
o RevCounterDial_Circle.001
v -0.065030 0.660262 0.000000
v -0.192591 0.634888 0.000000
v -0.312751 0.585116 0.000000
v -0.420892 0.512859 0.000000
v -0.512858 0.420892 0.000000
v -0.585116 0.312751 0.000000
v -0.634887 0.192591 0.000000
v -0.660261 0.065030 0.000000
v -0.660261 -0.065030 -0.000000
v -0.634887 -0.192591 -0.000000
v -0.585116 -0.312751 -0.000000
v -0.512858 -0.420892 -0.000000
v -0.420892 -0.512859 -0.000000
v -0.312751 -0.585116 -0.000000
v -0.192591 -0.634888 -0.000000
v -0.065030 -0.660262 -0.000000
v 0.065030 -0.660262 -0.000000
v 0.192591 -0.634888 -0.000000
v 0.312751 -0.585116 -0.000000
v 0.420892 -0.512859 -0.000000
v 0.512858 -0.420892 -0.000000
v 0.585116 -0.312751 -0.000000
v 0.634888 -0.192591 -0.000000
v 0.660261 -0.065030 -0.000000
v 0.660261 0.065031 0.000000
v 0.634887 0.192592 0.000000
v 0.585115 0.312752 0.000000
v 0.512858 0.420893 0.000000
v 0.420891 0.512859 0.000000
v 0.312750 0.585117 0.000000
v 0.192590 0.634889 0.000000
v 0.065030 0.660262 0.000000
v -0.097545 0.990393 0.000000
v -0.113178 0.568984 0.000000
v -0.000000 0.580131 0.000000
v -0.288887 0.952332 0.000000
v -0.222006 0.535971 0.000000
v -0.469126 0.877675 0.000000
v -0.322303 0.482361 0.000000
v -0.631338 0.769288 0.000000
v -0.410214 0.410214 0.000000
v -0.769287 0.631338 0.000000
v -0.482361 0.322303 0.000000
v -0.877673 0.469127 0.000000
v -0.535970 0.222006 0.000000
v -0.952331 0.288887 0.000000
v -0.568983 0.113178 0.000000
v -0.990391 0.097545 0.000000
v -0.580130 0.000000 0.000000
v -0.990391 -0.097545 -0.000000
v -0.568983 -0.113178 -0.000000
v -0.952331 -0.288887 -0.000000
v -0.535970 -0.222006 -0.000000
v -0.877673 -0.469127 -0.000000
v -0.482361 -0.322303 -0.000000
v -0.769287 -0.631338 -0.000000
v -0.410214 -0.410214 -0.000000
v -0.631338 -0.769288 -0.000000
v -0.322303 -0.482361 -0.000000
v -0.469126 -0.877675 -0.000000
v -0.222006 -0.535971 -0.000000
v -0.288886 -0.952332 -0.000000
v -0.113178 -0.568984 -0.000000
v -0.097545 -0.990393 -0.000000
v 0.000000 -0.580131 -0.000000
v 0.097545 -0.990393 -0.000000
v 0.113178 -0.568984 -0.000000
v 0.288887 -0.952332 -0.000000
v 0.222006 -0.535971 -0.000000
v 0.469127 -0.877674 -0.000000
v 0.322303 -0.482361 -0.000000
v 0.631338 -0.769288 -0.000000
v 0.410214 -0.410214 -0.000000
v 0.769288 -0.631338 -0.000000
v 0.482361 -0.322303 -0.000000
v 0.877674 -0.469126 -0.000000
v 0.535971 -0.222006 -0.000000
v 0.952331 -0.288886 -0.000000
v 0.568983 -0.113177 -0.000000
v 0.990391 -0.097544 -0.000000
v 0.580130 0.000001 0.000000
v 0.990391 0.097546 0.000000
v 0.568983 0.113179 0.000000
v 0.952331 0.288888 0.000000
v 0.535970 0.222007 0.000000
v 0.877673 0.469128 0.000000
v 0.482360 0.322304 0.000000
v 0.769286 0.631339 0.000000
v 0.410213 0.410215 0.000000
v 0.631337 0.769289 0.000000
v 0.322302 0.482362 0.000000
v 0.469125 0.877675 0.000000
v 0.222005 0.535971 0.000000
v 0.288885 0.952333 0.000000
v 0.113177 0.568984 0.000000
v 0.097544 0.990393 0.000000
v -0.000000 0.000000 0.000000
v -0.000000 0.995196 0.000000
v -0.194153 0.976074 0.000000
v -0.380845 0.919441 0.000000
v -0.552901 0.827475 0.000000
v -0.703709 0.703710 0.000000
v -0.827474 0.552901 0.000000
v -0.919440 0.380845 0.000000
v -0.976073 0.194153 0.000000
v -0.995195 0.000000 0.000000
v -0.976073 -0.194153 -0.000000
v -0.919440 -0.380845 -0.000000
v -0.827474 -0.552901 -0.000000
v -0.703709 -0.703710 -0.000000
v -0.552901 -0.827476 -0.000000
v -0.380844 -0.919442 -0.000000
v -0.194153 -0.976074 -0.000000
v 0.000000 -0.995196 -0.000000
v 0.194153 -0.976074 -0.000000
v 0.380845 -0.919441 -0.000000
v 0.552901 -0.827475 -0.000000
v 0.703710 -0.703710 -0.000000
v 0.827475 -0.552901 -0.000000
v 0.919441 -0.380844 -0.000000
v 0.976073 -0.194152 -0.000000
v 0.995195 0.000001 0.000000
v 0.976072 0.194154 0.000000
v 0.919440 0.380846 0.000000
v 0.827474 0.552902 0.000000
v 0.703708 0.703711 0.000000
v 0.552900 0.827476 0.000000
v 0.380843 0.919442 0.000000
v 0.194152 0.976074 0.000000
vt 0.473714 0.823000
vt 0.450129 0.778652
vt 0.500043 0.497303
vt 0.504286 0.782550
vt 0.507245 0.986713
vt 0.460570 0.985899
vt 0.414520 0.980061
vt 0.412193 0.811723
vt 0.397071 0.763102
vt 0.368289 0.968983
vt 0.323353 0.953312
vt 0.354124 0.788199
vt 0.348754 0.737546
vt 0.281187 0.933698
vt 0.240681 0.909582
vt 0.300484 0.752671
vt 0.303729 0.701270
vt 0.200726 0.880406
vt 0.163224 0.847240
vt 0.253385 0.706504
vt 0.267464 0.657535
vt 0.130078 0.811155
vt 0.101084 0.772253
vt 0.217360 0.652824
vt 0.240874 0.607500
vt 0.076041 0.730635
vt 0.055433 0.686456
vt 0.193165 0.592315
vt 0.225375 0.553081
vt 0.039748 0.639871
vt 0.028877 0.592880
vt 0.181808 0.530723
vt 0.220795 0.500153
vt 0.022713 0.547483
vt 0.021055 0.502339
vt 0.182470 0.469805
vt 0.226375 0.446065
vt 0.023704 0.456107
vt 0.030626 0.409513
vt 0.194521 0.407925
vt 0.241776 0.392994
vt 0.041782 0.363286
vt 0.057046 0.318395
vt 0.217527 0.349608
vt 0.266407 0.344590
vt 0.076290 0.275810
vt 0.099301 0.235432
vt 0.250576 0.297174
vt 0.299785 0.301415
vt 0.125864 0.197161
vt 0.156453 0.161364
vt 0.294361 0.251341
vt 0.342257 0.265518
vt 0.191542 0.128410
vt 0.229496 0.099636
vt 0.345787 0.216652
vt 0.389097 0.241064
vt 0.268681 0.076378
vt 0.309705 0.057829
vt 0.402118 0.194522
vt 0.440603 0.226001
vt 0.353178 0.043182
vt 0.398139 0.032061
vt 0.462420 0.181795
vt 0.494353 0.218921
vt 0.443630 0.024091
vt 0.490203 0.019842
vt 0.525606 0.178988
vt 0.550551 0.221785
vt 0.538409 0.019881
vt 0.586756 0.024684
vt 0.589168 0.188886
vt 0.603950 0.236300
vt 0.633752 0.034728
vt 0.678434 0.049623
vt 0.646556 0.211720
vt 0.651076 0.261683
vt 0.719834 0.068979
vt 0.759063 0.093095
vt 0.698154 0.247248
vt 0.694059 0.297616
vt 0.797232 0.122270
vt 0.832947 0.154919
vt 0.743212 0.292036
vt 0.729473 0.339282
vt 0.864817 0.189453
vt 0.893556 0.226288
vt 0.779917 0.342959
vt 0.757254 0.386732
vt 0.919876 0.265837
vt 0.941505 0.307689
vt 0.804112 0.400021
vt 0.771733 0.438910
vt 0.956169 0.351430
vt 0.966018 0.397129
vt 0.815469 0.462302
vt 0.778185 0.494078
vt 0.973204 0.444852
vt 0.977159 0.492065
vt 0.818211 0.523220
vt 0.775837 0.545926
vt 0.977316 0.536229
vt 0.973202 0.580496
vt 0.809562 0.584411
vt 0.762477 0.600721
vt 0.964343 0.628016
vt 0.950355 0.674975
vt 0.787237 0.644107
vt 0.737336 0.649124
vt 0.930855 0.717560
vt 0.907079 0.757680
vt 0.753507 0.697230
vt 0.703958 0.693851
vt 0.880261 0.797244
vt 0.849927 0.834591
vt 0.710402 0.744442
vt 0.662676 0.730437
vt 0.815603 0.868062
vt 0.778925 0.897354
vt 0.661018 0.780509
vt 0.616858 0.757133
vt 0.741527 0.922163
vt 0.700758 0.943039
vt 0.602645 0.806087
vt 0.560928 0.775125
vt 0.653967 0.960530
vt 0.604412 0.973977
vt 0.536899 0.820882
vt 0.555348 0.982722
vn 0.0000 -0.0000 1.0000
usemtl RevDial
s off
f 1/1/1 34/2/1 97/3/1 35/4/1
f 1/1/1 35/4/1 98/5/1 33/6/1
f 1/1/1 33/6/1 99/7/1 34/2/1
f 2/8/1 37/9/1 97/3/1 34/2/1
f 2/8/1 34/2/1 99/7/1 36/10/1
f 2/8/1 36/10/1 100/11/1 37/9/1
f 3/12/1 39/13/1 97/3/1 37/9/1
f 3/12/1 37/9/1 100/11/1 38/14/1
f 3/12/1 38/14/1 101/15/1 39/13/1
f 4/16/1 41/17/1 97/3/1 39/13/1
f 4/16/1 39/13/1 101/15/1 40/18/1
f 4/16/1 40/18/1 102/19/1 41/17/1
f 5/20/1 43/21/1 97/3/1 41/17/1
f 5/20/1 41/17/1 102/19/1 42/22/1
f 5/20/1 42/22/1 103/23/1 43/21/1
f 6/24/1 45/25/1 97/3/1 43/21/1
f 6/24/1 43/21/1 103/23/1 44/26/1
f 6/24/1 44/26/1 104/27/1 45/25/1
f 7/28/1 47/29/1 97/3/1 45/25/1
f 7/28/1 45/25/1 104/27/1 46/30/1
f 7/28/1 46/30/1 105/31/1 47/29/1
f 8/32/1 49/33/1 97/3/1 47/29/1
f 8/32/1 47/29/1 105/31/1 48/34/1
f 8/32/1 48/34/1 106/35/1 49/33/1
f 9/36/1 51/37/1 97/3/1 49/33/1
f 9/36/1 49/33/1 106/35/1 50/38/1
f 9/36/1 50/38/1 107/39/1 51/37/1
f 10/40/1 53/41/1 97/3/1 51/37/1
f 10/40/1 51/37/1 107/39/1 52/42/1
f 10/40/1 52/42/1 108/43/1 53/41/1
f 11/44/1 55/45/1 97/3/1 53/41/1
f 11/44/1 53/41/1 108/43/1 54/46/1
f 11/44/1 54/46/1 109/47/1 55/45/1
f 12/48/1 57/49/1 97/3/1 55/45/1
f 12/48/1 55/45/1 109/47/1 56/50/1
f 12/48/1 56/50/1 110/51/1 57/49/1
f 13/52/1 59/53/1 97/3/1 57/49/1
f 13/52/1 57/49/1 110/51/1 58/54/1
f 13/52/1 58/54/1 111/55/1 59/53/1
f 14/56/1 61/57/1 97/3/1 59/53/1
f 14/56/1 59/53/1 111/55/1 60/58/1
f 14/56/1 60/58/1 112/59/1 61/57/1
f 15/60/1 63/61/1 97/3/1 61/57/1
f 15/60/1 61/57/1 112/59/1 62/62/1
f 15/60/1 62/62/1 113/63/1 63/61/1
f 16/64/1 65/65/1 97/3/1 63/61/1
f 16/64/1 63/61/1 113/63/1 64/66/1
f 16/64/1 64/66/1 114/67/1 65/65/1
f 17/68/1 67/69/1 97/3/1 65/65/1
f 17/68/1 65/65/1 114/67/1 66/70/1
f 17/68/1 66/70/1 115/71/1 67/69/1
f 18/72/1 69/73/1 97/3/1 67/69/1
f 18/72/1 67/69/1 115/71/1 68/74/1
f 18/72/1 68/74/1 116/75/1 69/73/1
f 19/76/1 71/77/1 97/3/1 69/73/1
f 19/76/1 69/73/1 116/75/1 70/78/1
f 19/76/1 70/78/1 117/79/1 71/77/1
f 20/80/1 73/81/1 97/3/1 71/77/1
f 20/80/1 71/77/1 117/79/1 72/82/1
f 20/80/1 72/82/1 118/83/1 73/81/1
f 21/84/1 75/85/1 97/3/1 73/81/1
f 21/84/1 73/81/1 118/83/1 74/86/1
f 21/84/1 74/86/1 119/87/1 75/85/1
f 22/88/1 77/89/1 97/3/1 75/85/1
f 22/88/1 75/85/1 119/87/1 76/90/1
f 22/88/1 76/90/1 120/91/1 77/89/1
f 23/92/1 79/93/1 97/3/1 77/89/1
f 23/92/1 77/89/1 120/91/1 78/94/1
f 23/92/1 78/94/1 121/95/1 79/93/1
f 24/96/1 81/97/1 97/3/1 79/93/1
f 24/96/1 79/93/1 121/95/1 80/98/1
f 24/96/1 80/98/1 122/99/1 81/97/1
f 25/100/1 83/101/1 97/3/1 81/97/1
f 25/100/1 81/97/1 122/99/1 82/102/1
f 25/100/1 82/102/1 123/103/1 83/101/1
f 26/104/1 85/105/1 97/3/1 83/101/1
f 26/104/1 83/101/1 123/103/1 84/106/1
f 26/104/1 84/106/1 124/107/1 85/105/1
f 27/108/1 87/109/1 97/3/1 85/105/1
f 27/108/1 85/105/1 124/107/1 86/110/1
f 27/108/1 86/110/1 125/111/1 87/109/1
f 28/112/1 89/113/1 97/3/1 87/109/1
f 28/112/1 87/109/1 125/111/1 88/114/1
f 28/112/1 88/114/1 126/115/1 89/113/1
f 29/116/1 91/117/1 97/3/1 89/113/1
f 29/116/1 89/113/1 126/115/1 90/118/1
f 29/116/1 90/118/1 127/119/1 91/117/1
f 30/120/1 93/121/1 97/3/1 91/117/1
f 30/120/1 91/117/1 127/119/1 92/122/1
f 30/120/1 92/122/1 128/123/1 93/121/1
f 31/124/1 95/125/1 97/3/1 93/121/1
f 31/124/1 93/121/1 128/123/1 94/126/1
f 31/124/1 94/126/1 129/127/1 95/125/1
f 32/128/1 35/4/1 97/3/1 95/125/1
f 32/128/1 95/125/1 129/127/1 96/129/1
f 32/128/1 96/129/1 98/5/1 35/4/1
o SpeedometerDial_Circle
v 0.660262 0.065030 0.000000
v 0.634888 0.192591 0.000000
v 0.585116 0.312751 0.000000
v 0.512859 0.420892 0.000000
v 0.420892 0.512859 0.000000
v 0.312751 0.585116 0.000000
v 0.192591 0.634888 0.000000
v 0.065030 0.660262 0.000000
v -0.065030 0.660262 0.000000
v -0.192591 0.634888 0.000000
v -0.312751 0.585116 0.000000
v -0.420892 0.512859 0.000000
v -0.512859 0.420892 -0.000000
v -0.585116 0.312751 -0.000000
v -0.634888 0.192591 -0.000000
v -0.660262 0.065030 -0.000000
v -0.660262 -0.065030 -0.000000
v -0.634888 -0.192592 -0.000000
v -0.585116 -0.312752 -0.000000
v -0.512859 -0.420893 -0.000000
v -0.420892 -0.512859 -0.000000
v -0.312751 -0.585117 -0.000000
v -0.192591 -0.634888 -0.000000
v -0.065030 -0.660262 -0.000000
v 0.065031 -0.660262 -0.000000
v 0.192592 -0.634888 -0.000000
v 0.312752 -0.585116 -0.000000
v 0.420893 -0.512858 -0.000000
v 0.512859 -0.420892 0.000000
v 0.585117 -0.312750 0.000000
v 0.634889 -0.192590 0.000000
v 0.660262 -0.065030 0.000000
v 0.990393 0.097545 0.000000
v 0.568984 0.113178 0.000000
v 0.580131 0.000000 0.000000
v 0.952332 0.288887 0.000000
v 0.535971 0.222006 0.000000
v 0.877675 0.469127 0.000000
v 0.482361 0.322303 0.000000
v 0.769288 0.631338 0.000000
v 0.410214 0.410214 0.000000
v 0.631338 0.769288 0.000000
v 0.322303 0.482361 0.000000
v 0.469127 0.877675 0.000000
v 0.222006 0.535971 0.000000
v 0.288887 0.952332 0.000000
v 0.113178 0.568984 0.000000
v 0.097545 0.990393 0.000000
v 0.000000 0.580131 0.000000
v -0.097545 0.990393 0.000000
v -0.113178 0.568984 0.000000
v -0.288887 0.952332 0.000000
v -0.222006 0.535971 0.000000
v -0.469127 0.877675 0.000000
v -0.322303 0.482361 0.000000
v -0.631338 0.769288 0.000000
v -0.410214 0.410214 0.000000
v -0.769288 0.631338 -0.000000
v -0.482361 0.322303 -0.000000
v -0.877675 0.469127 -0.000000
v -0.535971 0.222006 -0.000000
v -0.952332 0.288887 -0.000000
v -0.568984 0.113178 -0.000000
v -0.990393 0.097545 -0.000000
v -0.580131 -0.000000 -0.000000
v -0.990393 -0.097546 -0.000000
v -0.568984 -0.113178 -0.000000
v -0.952332 -0.288887 -0.000000
v -0.535971 -0.222007 -0.000000
v -0.877674 -0.469127 -0.000000
v -0.482361 -0.322304 -0.000000
v -0.769288 -0.631339 -0.000000
v -0.410214 -0.410215 -0.000000
v -0.631338 -0.769289 -0.000000
v -0.322303 -0.482361 -0.000000
v -0.469126 -0.877675 -0.000000
v -0.222006 -0.535971 -0.000000
v -0.288886 -0.952333 -0.000000
v -0.113177 -0.568984 -0.000000
v -0.097544 -0.990393 -0.000000
v 0.000001 -0.580131 -0.000000
v 0.097546 -0.990393 -0.000000
v 0.113179 -0.568984 -0.000000
v 0.288888 -0.952332 -0.000000
v 0.222007 -0.535971 -0.000000
v 0.469128 -0.877674 -0.000000
v 0.322304 -0.482361 -0.000000
v 0.631339 -0.769287 -0.000000
v 0.410215 -0.410214 0.000000
v 0.769289 -0.631338 0.000000
v 0.482362 -0.322303 0.000000
v 0.877675 -0.469126 0.000000
v 0.535971 -0.222006 0.000000
v 0.952333 -0.288885 0.000000
v 0.568984 -0.113177 0.000000
v 0.990393 -0.097544 0.000000
v 0.000000 0.000000 0.000000
v 0.995196 0.000000 0.000000
v 0.976074 0.194153 0.000000
v 0.919441 0.380845 0.000000
v 0.827475 0.552901 0.000000
v 0.703710 0.703710 0.000000
v 0.552901 0.827476 0.000000
v 0.380845 0.919441 0.000000
v 0.194153 0.976074 0.000000
v 0.000000 0.995196 0.000000
v -0.194153 0.976074 0.000000
v -0.380845 0.919442 0.000000
v -0.552901 0.827476 0.000000
v -0.703710 0.703710 0.000000
v -0.827476 0.552901 -0.000000
v -0.919442 0.380845 -0.000000
v -0.976074 0.194153 -0.000000
v -0.995196 -0.000000 -0.000000
v -0.976074 -0.194154 -0.000000
v -0.919441 -0.380846 -0.000000
v -0.827475 -0.552902 -0.000000
v -0.703710 -0.703710 -0.000000
v -0.552901 -0.827476 -0.000000
v -0.380844 -0.919442 -0.000000
v -0.194152 -0.976074 -0.000000
v 0.000001 -0.995196 -0.000000
v 0.194154 -0.976074 -0.000000
v 0.380846 -0.919441 -0.000000
v 0.552902 -0.827475 -0.000000
v 0.703711 -0.703709 0.000000
v 0.827476 -0.552900 0.000000
v 0.919442 -0.380844 0.000000
v 0.976074 -0.194152 0.000000
vt 0.821568 0.518574
vt 0.777995 0.543039
vt 0.493851 0.499930
vt 0.780260 0.489092
vt 0.985312 0.481362
vt 0.985566 0.527862
vt 0.981499 0.573800
vt 0.812938 0.579653
vt 0.764912 0.595881
vt 0.972622 0.619479
vt 0.959055 0.664450
vt 0.791799 0.638844
vt 0.741046 0.645880
vt 0.940914 0.708266
vt 0.918149 0.750258
vt 0.758330 0.693170
vt 0.706669 0.690090
vt 0.890710 0.789755
vt 0.859139 0.826135
vt 0.713843 0.739185
vt 0.663965 0.725958
vt 0.823980 0.858778
vt 0.785844 0.887631
vt 0.661419 0.775096
vt 0.615094 0.753254
vt 0.745343 0.912643
vt 0.702117 0.934347
vt 0.601727 0.802183
vt 0.560592 0.772259
vt 0.655806 0.953274
vt 0.608401 0.967239
vt 0.539118 0.816040
vt 0.506313 0.777364
vt 0.561892 0.974059
vt 0.515468 0.975709
vt 0.476734 0.816108
vt 0.450854 0.773206
vt 0.468316 0.974162
vt 0.420399 0.968686
vt 0.412310 0.805698
vt 0.395053 0.758908
vt 0.371679 0.958548
vt 0.324417 0.944121
vt 0.351772 0.783854
vt 0.345850 0.734517
vt 0.280873 0.925782
vt 0.240192 0.902461
vt 0.298870 0.748728
vt 0.302502 0.698270
vt 0.201520 0.873092
vt 0.165753 0.839992
vt 0.253714 0.703652
vt 0.267465 0.656902
vt 0.133786 0.805479
vt 0.105680 0.769136
vt 0.218855 0.653699
vt 0.241702 0.610673
vt 0.081498 0.730549
vt 0.061481 0.689864
vt 0.195106 0.598152
vt 0.225829 0.560086
vt 0.045874 0.647229
vt 0.034321 0.603081
vt 0.182168 0.538573
vt 0.218868 0.507516
vt 0.026466 0.557860
vt 0.022378 0.512787
vt 0.179273 0.479391
vt 0.221475 0.456113
vt 0.022124 0.469086
vt 0.026704 0.424928
vt 0.189272 0.418991
vt 0.236270 0.402423
vt 0.037122 0.378486
vt 0.052231 0.332498
vt 0.211781 0.359799
vt 0.259965 0.354290
vt 0.070886 0.289699
vt 0.092880 0.249997
vt 0.243195 0.308866
vt 0.291088 0.313302
vt 0.118007 0.213299
vt 0.146238 0.179716
vt 0.282887 0.266242
vt 0.329683 0.279300
vt 0.177545 0.149363
vt 0.212342 0.121528
vt 0.331886 0.230332
vt 0.376328 0.250817
vt 0.251045 0.095497
vt 0.292472 0.072521
vt 0.388153 0.202566
vt 0.427405 0.231642
vt 0.335445 0.053849
vt 0.380025 0.039629
vt 0.448708 0.186674
vt 0.481684 0.222976
vt 0.426276 0.030011
vt 0.473214 0.024800
vt 0.511092 0.182535
vt 0.536287 0.224589
vt 0.519853 0.023803
vt 0.566742 0.027498
vt 0.574146 0.190910
vt 0.591403 0.237700
vt 0.614434 0.036364
vt 0.661439 0.050027
vt 0.635369 0.212075
vt 0.642318 0.261243
vt 0.706268 0.068113
vt 0.748747 0.090416
vt 0.690326 0.244488
vt 0.687036 0.294098
vt 0.788703 0.116732
vt 0.825498 0.146779
vt 0.736852 0.286851
vt 0.723615 0.335297
vt 0.858492 0.180276
vt 0.888139 0.217382
vt 0.774451 0.338839
vt 0.752802 0.383901
vt 0.914891 0.258259
vt 0.938246 0.300979
vt 0.802994 0.395743
vt 0.772614 0.434487
vt 0.957706 0.343614
vt 0.972342 0.387507
vt 0.818672 0.456000
vt 0.981223 0.434000
vn -0.0000 -0.0000 1.0000
usemtl Dial
s off
f 130/130/2 163/131/2 226/132/2 164/133/2
f 130/130/2 164/133/2 227/134/2 162/135/2
f 130/130/2 162/135/2 228/136/2 163/131/2
f 131/137/2 166/138/2 226/132/2 163/131/2
f 131/137/2 163/131/2 228/136/2 165/139/2
f 131/137/2 165/139/2 229/140/2 166/138/2
f 132/141/2 168/142/2 226/132/2 166/138/2
f 132/141/2 166/138/2 229/140/2 167/143/2
f 132/141/2 167/143/2 230/144/2 168/142/2
f 133/145/2 170/146/2 226/132/2 168/142/2
f 133/145/2 168/142/2 230/144/2 169/147/2
f 133/145/2 169/147/2 231/148/2 170/146/2
f 134/149/2 172/150/2 226/132/2 170/146/2
f 134/149/2 170/146/2 231/148/2 171/151/2
f 134/149/2 171/151/2 232/152/2 172/150/2
f 135/153/2 174/154/2 226/132/2 172/150/2
f 135/153/2 172/150/2 232/152/2 173/155/2
f 135/153/2 173/155/2 233/156/2 174/154/2
f 136/157/2 176/158/2 226/132/2 174/154/2
f 136/157/2 174/154/2 233/156/2 175/159/2
f 136/157/2 175/159/2 234/160/2 176/158/2
f 137/161/2 178/162/2 226/132/2 176/158/2
f 137/161/2 176/158/2 234/160/2 177/163/2
f 137/161/2 177/163/2 235/164/2 178/162/2
f 138/165/2 180/166/2 226/132/2 178/162/2
f 138/165/2 178/162/2 235/164/2 179/167/2
f 138/165/2 179/167/2 236/168/2 180/166/2
f 139/169/2 182/170/2 226/132/2 180/166/2
f 139/169/2 180/166/2 236/168/2 181/171/2
f 139/169/2 181/171/2 237/172/2 182/170/2
f 140/173/2 184/174/2 226/132/2 182/170/2
f 140/173/2 182/170/2 237/172/2 183/175/2
f 140/173/2 183/175/2 238/176/2 184/174/2
f 141/177/2 186/178/2 226/132/2 184/174/2
f 141/177/2 184/174/2 238/176/2 185/179/2
f 141/177/2 185/179/2 239/180/2 186/178/2
f 142/181/2 188/182/2 226/132/2 186/178/2
f 142/181/2 186/178/2 239/180/2 187/183/2
f 142/181/2 187/183/2 240/184/2 188/182/2
f 143/185/2 190/186/2 226/132/2 188/182/2
f 143/185/2 188/182/2 240/184/2 189/187/2
f 143/185/2 189/187/2 241/188/2 190/186/2
f 144/189/2 192/190/2 226/132/2 190/186/2
f 144/189/2 190/186/2 241/188/2 191/191/2
f 144/189/2 191/191/2 242/192/2 192/190/2
f 145/193/2 194/194/2 226/132/2 192/190/2
f 145/193/2 192/190/2 242/192/2 193/195/2
f 145/193/2 193/195/2 243/196/2 194/194/2
f 146/197/2 196/198/2 226/132/2 194/194/2
f 146/197/2 194/194/2 243/196/2 195/199/2
f 146/197/2 195/199/2 244/200/2 196/198/2
f 147/201/2 198/202/2 226/132/2 196/198/2
f 147/201/2 196/198/2 244/200/2 197/203/2
f 147/201/2 197/203/2 245/204/2 198/202/2
f 148/205/2 200/206/2 226/132/2 198/202/2
f 148/205/2 198/202/2 245/204/2 199/207/2
f 148/205/2 199/207/2 246/208/2 200/206/2
f 149/209/2 202/210/2 226/132/2 200/206/2
f 149/209/2 200/206/2 246/208/2 201/211/2
f 149/209/2 201/211/2 247/212/2 202/210/2
f 150/213/2 204/214/2 226/132/2 202/210/2
f 150/213/2 202/210/2 247/212/2 203/215/2
f 150/213/2 203/215/2 248/216/2 204/214/2
f 151/217/2 206/218/2 226/132/2 204/214/2
f 151/217/2 204/214/2 248/216/2 205/219/2
f 151/217/2 205/219/2 249/220/2 206/218/2
f 152/221/2 208/222/2 226/132/2 206/218/2
f 152/221/2 206/218/2 249/220/2 207/223/2
f 152/221/2 207/223/2 250/224/2 208/222/2
f 153/225/2 210/226/2 226/132/2 208/222/2
f 153/225/2 208/222/2 250/224/2 209/227/2
f 153/225/2 209/227/2 251/228/2 210/226/2
f 154/229/2 212/230/2 226/132/2 210/226/2
f 154/229/2 210/226/2 251/228/2 211/231/2
f 154/229/2 211/231/2 252/232/2 212/230/2
f 155/233/2 214/234/2 226/132/2 212/230/2
f 155/233/2 212/230/2 252/232/2 213/235/2
f 155/233/2 213/235/2 253/236/2 214/234/2
f 156/237/2 216/238/2 226/132/2 214/234/2
f 156/237/2 214/234/2 253/236/2 215/239/2
f 156/237/2 215/239/2 254/240/2 216/238/2
f 157/241/2 218/242/2 226/132/2 216/238/2
f 157/241/2 216/238/2 254/240/2 217/243/2
f 157/241/2 217/243/2 255/244/2 218/242/2
f 158/245/2 220/246/2 226/132/2 218/242/2
f 158/245/2 218/242/2 255/244/2 219/247/2
f 158/245/2 219/247/2 256/248/2 220/246/2
f 159/249/2 222/250/2 226/132/2 220/246/2
f 159/249/2 220/246/2 256/248/2 221/251/2
f 159/249/2 221/251/2 257/252/2 222/250/2
f 160/253/2 224/254/2 226/132/2 222/250/2
f 160/253/2 222/250/2 257/252/2 223/255/2
f 160/253/2 223/255/2 258/256/2 224/254/2
f 161/257/2 164/133/2 226/132/2 224/254/2
f 161/257/2 224/254/2 258/256/2 225/258/2
f 161/257/2 225/258/2 227/134/2 164/133/2
